<svg xmlns="http://www.w3.org/2000/svg" viewBox="0 0 180 180" width="180" height="180">
  <rect width="180" height="180" fill="#ffffff" rx="40"/>
  <!-- QuickQUID Logo for Apple Touch Icon -->
  <g fill="#000000" transform="translate(20, 30)">
    <!-- First Q - larger -->
    <path d="M10 30 C10 15, 20 5, 40 5 C60 5, 70 15, 70 30 L70 70 C70 85, 60 95, 40 95 L35 95 L50 110 L35 110 L20 95 C10 85, 10 70, 10 70 Z M25 30 C25 25, 30 20, 40 20 C50 20, 55 25, 55 30 L55 70 C55 75, 50 80, 40 80 C30 80, 25 75, 25 70 Z"/>
    
    <!-- Second Q - overlapping -->
    <path d="M50 20 C50 10, 60 5, 75 5 C90 5, 100 10, 100 20 L100 50 C100 60, 90 65, 75 65 L70 65 L80 75 L70 75 L60 65 C50 60, 50 50, 50 50 Z M60 20 C60 17, 65 15, 75 15 C85 15, 90 17, 90 20 L90 50 C90 53, 85 55, 75 55 C65 55, 60 53, 60 50 Z"/>
  </g>
  
  <!-- QuickQUID text -->
  <text x="90" y="150" font-family="Arial, sans-serif" font-size="16" font-weight="bold" text-anchor="middle" fill="#000000">QUICKQUID</text>
</svg>