<svg xmlns="http://www.w3.org/2000/svg" viewBox="0 0 32 32" width="32" height="32">
  <rect width="32" height="32" fill="#ffffff"/>
  <!-- QuickQUID Logo - Two interlocked Q's based on the original design -->
  <g fill="#000000">
    <!-- First Q - larger, positioned left -->
    <path d="M3 8 C3 4, 6 2, 11 2 C16 2, 19 4, 19 8 L19 16 C19 20, 16 22, 11 22 L9 22 L14 27 L10 27 L5 22 C3 20, 3 16, 3 16 Z M7 8 C7 6, 8 5, 11 5 C14 5, 15 6, 15 8 L15 16 C15 18, 14 19, 11 19 C8 19, 7 18, 7 16 Z"/>
    
    <!-- Second Q - smaller, positioned right and overlapping -->
    <path d="M13 6 C13 3, 15 1, 19 1 C23 1, 25 3, 25 6 L25 12 C25 15, 23 17, 19 17 L18 17 L21 20 L18 20 L15 17 C13 15, 13 12, 13 12 Z M16 6 C16 5, 17 4, 19 4 C21 4, 22 5, 22 6 L22 12 C22 13, 21 14, 19 14 C17 14, 16 13, 16 12 Z"/>
  </g>
</svg>